<svg width="14" height="13" viewBox="0 0 14 13" fill="none" xmlns="http://www.w3.org/2000/svg">
<path id="Vector" fill-rule="evenodd" clip-rule="evenodd" d="M-7.62939e-06 6.48449C-7.62939e-06 6.28558 0.0790091 6.09481 0.219662 5.95416C0.360314 5.81351 0.55108 5.73449 0.749992 5.73449L11.388 5.73449L7.22999 1.77449C7.0936 1.63507 7.01688 1.44801 7.0161 1.25297C7.01533 1.05793 7.09057 0.870261 7.22586 0.729769C7.36115 0.589278 7.54584 0.507014 7.74077 0.500428C7.9357 0.493842 8.12553 0.563451 8.26999 0.69449L13.77 5.94449C13.8426 6.01445 13.9003 6.09833 13.9398 6.19111C13.9792 6.2839 13.9995 6.38368 13.9995 6.48449C13.9995 6.58531 13.9792 6.68509 13.9398 6.77787C13.9003 6.87065 13.8426 6.95453 13.77 7.02449L8.26999 12.2745C8.1998 12.3462 8.11592 12.4032 8.02332 12.4419C7.93072 12.4806 7.83129 12.5004 7.73092 12.5C7.63055 12.4996 7.53127 12.4791 7.43898 12.4396C7.3467 12.4001 7.26327 12.3425 7.19365 12.2702C7.12402 12.1979 7.06962 12.1124 7.03366 12.0187C6.99771 11.925 6.98092 11.825 6.98431 11.7247C6.9877 11.6244 7.01119 11.5257 7.0534 11.4347C7.0956 11.3436 7.15565 11.2619 7.22999 11.1945L11.388 7.23449L0.749992 7.23449C0.55108 7.23449 0.360314 7.15547 0.219662 7.01482C0.0790091 6.87417 -7.62939e-06 6.6834 -7.62939e-06 6.48449Z" fill="black"/>
</svg>
