<svg width="20" height="17" viewBox="0 0 20 17" fill="none" xmlns="http://www.w3.org/2000/svg">
<g clip-path="url(#clip0_393_744)">
<path d="M0 7.4375V16.4688C0 16.7623 0.22375 17 0.5 17H3V6.375H1C0.447812 6.375 0 6.8508 0 7.4375ZM11.25 5.84375H10.5V4.51563C10.5 4.36887 10.3881 4.25 10.25 4.25H9.75C9.61187 4.25 9.5 4.36887 9.5 4.51563V6.64063C9.5 6.78739 9.61187 6.90625 9.75 6.90625H11.25C11.3881 6.90625 11.5 6.78739 11.5 6.64063V6.10938C11.5 5.96262 11.3881 5.84375 11.25 5.84375ZM15.5547 3.72008L10.5547 0.178304C10.3904 0.0620368 10.1974 0 10 0C9.8026 0 9.60961 0.0620368 9.44531 0.178304L4.44531 3.72008C4.30836 3.81709 4.19606 3.94852 4.11838 4.10271C4.0407 4.25689 4.00004 4.42906 4 4.60395V17H8V12.2188C8 11.9252 8.22375 11.6875 8.5 11.6875H11.5C11.7762 11.6875 12 11.9252 12 12.2188V17H16V4.60428C16 4.24901 15.8328 3.91698 15.5547 3.72008ZM10 8.5C8.61938 8.5 7.5 7.31067 7.5 5.84375C7.5 4.37684 8.61938 3.1875 10 3.1875C11.3806 3.1875 12.5 4.37684 12.5 5.84375C12.5 7.31067 11.3806 8.5 10 8.5ZM19 6.375H17V17H19.5C19.7763 17 20 16.7623 20 16.4688V7.4375C20 6.8508 19.5522 6.375 19 6.375Z" fill="black"/>
</g>
<defs>
<clipPath id="clip0_393_744">
<rect width="20" height="17" fill="white"/>
</clipPath>
</defs>
</svg>
