<svg width="19" height="22" viewBox="0 0 19 22" fill="none" xmlns="http://www.w3.org/2000/svg">
<path id="Shopping Bag logo" d="M2.375 21.5C1.72187 21.5 1.16296 21.2945 0.69825 20.8836C0.233541 20.4727 0.000791667 19.9782 0 19.4V6.8C0 6.2225 0.23275 5.7283 0.69825 5.3174C1.16375 4.9065 1.72267 4.7007 2.375 4.7H4.75C4.75 3.545 5.2151 2.55625 6.14531 1.73375C7.07552 0.91125 8.19375 0.5 9.5 0.5C10.8062 0.5 11.9245 0.91125 12.8547 1.73375C13.7849 2.55625 14.25 3.545 14.25 4.7H16.625C17.2781 4.7 17.8374 4.9058 18.3029 5.3174C18.7684 5.729 19.0008 6.2232 19 6.8V19.4C19 19.9775 18.7676 20.472 18.3029 20.8836C17.8382 21.2952 17.2789 21.5007 16.625 21.5H2.375ZM2.375 19.4H16.625V6.8H14.25V8.9C14.25 9.1975 14.136 9.44705 13.908 9.64865C13.68 9.85025 13.3982 9.9507 13.0625 9.95C12.726 9.95 12.4442 9.8492 12.217 9.6476C11.9898 9.446 11.8758 9.1968 11.875 8.9V6.8H7.125V8.9C7.125 9.1975 7.011 9.44705 6.783 9.64865C6.555 9.85025 6.27317 9.9507 5.9375 9.95C5.60104 9.95 5.31921 9.8492 5.092 9.6476C4.86479 9.446 4.75079 9.1968 4.75 8.9V6.8H2.375V19.4ZM7.125 4.7H11.875C11.875 4.1225 11.6426 3.6283 11.1779 3.2174C10.7132 2.8065 10.1539 2.6007 9.5 2.6C8.84687 2.6 8.28796 2.8058 7.82325 3.2174C7.35854 3.629 7.12579 4.1232 7.125 4.7Z" fill="#333333"/>
</svg>
