<svg width="20" height="21" viewBox="0 0 20 21" fill="none" xmlns="http://www.w3.org/2000/svg">
<path d="M8.46143 0.307831C9.45178 -0.10261 10.5482 -0.10261 11.5386 0.307831L18.6271 3.24473C19.0313 3.41239 19.3788 3.70805 19.6238 4.09273C19.8689 4.47742 20.0001 4.93309 20 5.39968V15.5988C20.0001 16.0654 19.8689 16.521 19.6238 16.9057C19.3788 17.2904 19.0313 17.5861 18.6271 17.7537L11.5386 20.6922C10.5482 21.1026 9.45178 21.1026 8.46143 20.6922L1.37429 17.7537C0.969897 17.5863 0.622099 17.2908 0.376759 16.9061C0.131418 16.5214 5.73464e-05 16.0656 0 15.5988V5.39968C5.73464e-05 4.93291 0.131418 4.47711 0.376759 4.0924C0.622099 3.7077 0.969897 3.41214 1.37429 3.24473L8.46143 0.307831ZM11.0257 1.74396C10.3655 1.47033 9.63452 1.47033 8.97429 1.74396L6.99714 2.56438L14.9829 5.82144L17.7657 4.5377L11.0257 1.74396ZM18.5714 5.83837L10.7143 9.46947V19.3638C10.82 19.3345 10.9229 19.2991 11.0257 19.256L18.1143 16.3191C18.249 16.2631 18.3648 16.1645 18.4464 16.0362C18.528 15.9078 18.5716 15.7559 18.5714 15.6003V5.83837ZM9.28571 19.3623V9.46947L1.42857 5.83991V15.5988C1.42842 15.7543 1.47202 15.9063 1.55363 16.0346C1.63524 16.1629 1.75102 16.2616 1.88571 16.3176L8.97429 19.2545C9.07714 19.2976 9.18 19.333 9.28571 19.3623ZM2.23429 4.5377L10 8.12416L13.0914 6.69573L4.99571 3.3925L2.23429 4.5377Z" fill="black"/>
</svg>
