<svg width="20" height="19" viewBox="0 0 20 19" fill="none" xmlns="http://www.w3.org/2000/svg">
<path d="M12 5.7H13C13.2652 5.7 13.5196 5.59991 13.7071 5.42175C13.8946 5.24359 14 5.00196 14 4.75C14 4.49804 13.8946 4.25641 13.7071 4.07825C13.5196 3.90009 13.2652 3.8 13 3.8H12C11.7348 3.8 11.4804 3.90009 11.2929 4.07825C11.1054 4.25641 11 4.49804 11 4.75C11 5.00196 11.1054 5.24359 11.2929 5.42175C11.4804 5.59991 11.7348 5.7 12 5.7ZM12 9.5H13C13.2652 9.5 13.5196 9.39991 13.7071 9.22175C13.8946 9.04359 14 8.80196 14 8.55C14 8.29804 13.8946 8.05641 13.7071 7.87825C13.5196 7.70009 13.2652 7.6 13 7.6H12C11.7348 7.6 11.4804 7.70009 11.2929 7.87825C11.1054 8.05641 11 8.29804 11 8.55C11 8.80196 11.1054 9.04359 11.2929 9.22175C11.4804 9.39991 11.7348 9.5 12 9.5ZM7 5.7H8C8.26522 5.7 8.51957 5.59991 8.70711 5.42175C8.89464 5.24359 9 5.00196 9 4.75C9 4.49804 8.89464 4.25641 8.70711 4.07825C8.51957 3.90009 8.26522 3.8 8 3.8H7C6.73478 3.8 6.48043 3.90009 6.29289 4.07825C6.10536 4.25641 6 4.49804 6 4.75C6 5.00196 6.10536 5.24359 6.29289 5.42175C6.48043 5.59991 6.73478 5.7 7 5.7ZM7 9.5H8C8.26522 9.5 8.51957 9.39991 8.70711 9.22175C8.89464 9.04359 9 8.80196 9 8.55C9 8.29804 8.89464 8.05641 8.70711 7.87825C8.51957 7.70009 8.26522 7.6 8 7.6H7C6.73478 7.6 6.48043 7.70009 6.29289 7.87825C6.10536 8.05641 6 8.29804 6 8.55C6 8.80196 6.10536 9.04359 6.29289 9.22175C6.48043 9.39991 6.73478 9.5 7 9.5ZM19 17.1H18V0.95C18 0.698044 17.8946 0.456408 17.7071 0.278249C17.5196 0.100089 17.2652 0 17 0H3C2.73478 0 2.48043 0.100089 2.29289 0.278249C2.10536 0.456408 2 0.698044 2 0.95V17.1H1C0.734784 17.1 0.48043 17.2001 0.292893 17.3782C0.105357 17.5564 0 17.798 0 18.05C0 18.302 0.105357 18.5436 0.292893 18.7218C0.48043 18.8999 0.734784 19 1 19H19C19.2652 19 19.5196 18.8999 19.7071 18.7218C19.8946 18.5436 20 18.302 20 18.05C20 17.798 19.8946 17.5564 19.7071 17.3782C19.5196 17.2001 19.2652 17.1 19 17.1ZM11 17.1H9V13.3H11V17.1ZM16 17.1H13V12.35C13 12.098 12.8946 11.8564 12.7071 11.6782C12.5196 11.5001 12.2652 11.4 12 11.4H8C7.73478 11.4 7.48043 11.5001 7.29289 11.6782C7.10536 11.8564 7 12.098 7 12.35V17.1H4V1.9H16V17.1Z" fill="black"/>
</svg>
