<svg width="25" height="20" viewBox="0 0 25 20" fill="none" xmlns="http://www.w3.org/2000/svg">
<path id="Inbox Logo" fill-rule="evenodd" clip-rule="evenodd" d="M4.7875 1.73612C4.99488 1.36505 5.31366 1.0529 5.70815 0.834587C6.10265 0.616279 6.55731 0.500429 7.02125 0.5H17.9762C18.4406 0.500014 18.8958 0.615669 19.2908 0.834C19.6858 1.05233 20.0049 1.36471 20.2125 1.73612L24.6025 9.58759C24.8631 10.0525 24.9992 10.5652 25 11.0852V17.2647C25 17.8575 24.7366 18.4261 24.2678 18.8453C23.7989 19.2645 23.163 19.5 22.5 19.5H2.5C1.83696 19.5 1.20107 19.2645 0.732233 18.8453C0.263392 18.4261 0 17.8575 0 17.2647V11.0864C0.000233599 10.566 0.135895 10.0529 0.39625 9.58759L4.7875 1.73612ZM17.9762 2.73529H7.0225L2.65 10.5588H6.875C7.37228 10.5588 7.84919 10.7355 8.20083 11.0499C8.55246 11.3642 8.75 11.7907 8.75 12.2353V13.3529C8.75 13.5012 8.81585 13.6433 8.93306 13.7481C9.05027 13.8529 9.20924 13.9118 9.375 13.9118H15.625C15.7908 13.9118 15.9497 13.8529 16.0669 13.7481C16.1842 13.6433 16.25 13.5012 16.25 13.3529V12.2353C16.25 11.7907 16.4475 11.3642 16.7992 11.0499C17.1508 10.7355 17.6277 10.5588 18.125 10.5588H22.35L17.9762 2.73529Z" fill="#333333"/>
</svg>
