<svg width="21" height="22" viewBox="0 0 21 22" fill="none" xmlns="http://www.w3.org/2000/svg">
<path id="Notifications Logo" d="M8.16667 19.9048H12.8333C12.8333 21.0571 11.7833 22 10.5 22C9.21667 22 8.16667 21.0571 8.16667 19.9048ZM21 17.8095V18.8571H0V17.8095L2.33333 15.7143V9.42857C2.33333 6.18095 4.66667 3.35238 8.16667 2.40952V2.09524C8.16667 0.942857 9.21667 0 10.5 0C11.7833 0 12.8333 0.942857 12.8333 2.09524V2.40952C16.3333 3.35238 18.6667 6.18095 18.6667 9.42857V15.7143L21 17.8095ZM16.3333 9.42857C16.3333 6.49524 13.7667 4.19048 10.5 4.19048C7.23333 4.19048 4.66667 6.49524 4.66667 9.42857V16.7619H16.3333V9.42857Z" fill="#333333"/>
</svg>
