<svg width="20" height="20" viewBox="0 0 20 20" fill="none" xmlns="http://www.w3.org/2000/svg">
<path id="Profile Logo" d="M14.2713 10.8656C15.9138 11.5808 17.3144 12.6939 18.3229 14.086C19.3315 15.478 19.9102 17.0965 19.997 18.7681C20.0085 18.9213 19.9866 19.075 19.9327 19.2203C19.8788 19.3655 19.7939 19.4994 19.6831 19.614C19.5723 19.7286 19.4377 19.8217 19.2873 19.8878C19.1368 19.9539 18.9736 19.9916 18.8072 19.9987C18.6407 20.0059 18.4744 19.9824 18.3179 19.9295C18.1615 19.8767 18.018 19.7955 17.8961 19.6909C17.7741 19.5863 17.6761 19.4603 17.6077 19.3203C17.5393 19.1804 17.502 19.0292 17.4979 18.8757C17.4069 17.0999 16.5771 15.4246 15.1807 14.1975C13.7843 12.9704 11.9286 12.2858 9.99871 12.2858C8.06885 12.2858 6.21311 12.9704 4.8167 14.1975C3.4203 15.4246 2.59049 17.0999 2.49955 18.8757C2.47707 19.1763 2.32773 19.4568 2.0835 19.6572C1.83926 19.8576 1.51956 19.962 1.19285 19.9479C0.866132 19.9339 0.558384 19.8025 0.335503 19.582C0.112622 19.3615 -0.00767279 19.0694 0.00037971 18.7681C0.086901 17.0966 0.665264 15.4781 1.67356 14.0861C2.68185 12.6941 4.08211 11.5808 5.72444 10.8656C4.67174 10.0567 3.91507 8.96874 3.55736 7.74969C3.19964 6.53064 3.25825 5.23967 3.72521 4.05238C4.19217 2.8651 5.04481 1.83914 6.16715 1.11407C7.28949 0.388994 8.62705 0 9.99788 0C11.3687 0 12.7063 0.388994 13.8286 1.11407C14.9509 1.83914 15.8036 2.8651 16.2705 4.05238C16.7375 5.23967 16.7961 6.53064 16.4384 7.74969C16.0807 8.96874 15.324 10.0567 14.2713 10.8656ZM14.1695 6.14278C14.1695 5.12377 13.7301 4.1465 12.9479 3.42596C12.1658 2.70541 11.1049 2.30061 9.99871 2.30061C8.89254 2.30061 7.83167 2.70541 7.04948 3.42596C6.2673 4.1465 5.82787 5.12377 5.82787 6.14278C5.82787 7.16179 6.2673 8.13906 7.04948 8.8596C7.83167 9.58015 8.89254 9.98495 9.99871 9.98495C11.1049 9.98495 12.1658 9.58015 12.9479 8.8596C13.7301 8.13906 14.1695 7.16179 14.1695 6.14278Z" fill="#333333"/>
</svg>
