<svg width="33" height="36" viewBox="0 0 33 36" fill="none" xmlns="http://www.w3.org/2000/svg">
<path d="M14.5814 3.31843C13.1566 3.31843 11.7902 3.93027 10.7828 5.01934C9.77529 6.10841 9.2093 7.58551 9.2093 9.12569C9.2093 10.6659 9.77529 12.143 10.7828 13.232C11.7902 14.3211 13.1566 14.9329 14.5814 14.9329C16.0062 14.9329 17.3726 14.3211 18.38 13.232C19.3875 12.143 19.9535 10.6659 19.9535 9.12569C19.9535 7.58551 19.3875 6.10841 18.38 5.01934C17.3726 3.93027 16.0062 3.31843 14.5814 3.31843ZM6.13953 9.12569C6.13953 6.7054 7.02894 4.38425 8.6121 2.67285C10.1953 0.961454 12.3425 0 14.5814 0C16.8203 0 18.9675 0.961454 20.5507 2.67285C22.1338 4.38425 23.0233 6.7054 23.0233 9.12569C23.0233 11.546 22.1338 13.8671 20.5507 15.5785C18.9675 17.2899 16.8203 18.2514 14.5814 18.2514C12.3425 18.2514 10.1953 17.2899 8.6121 15.5785C7.02894 13.8671 6.13953 11.546 6.13953 9.12569ZM22.2558 22.3994V28.429C22.2558 28.7047 22.3194 28.9761 22.4408 29.2185C22.5622 29.461 22.7376 29.667 22.9511 29.8178L26.093 32.0361L29.2349 29.8178C29.4484 29.667 29.6238 29.461 29.7452 29.2185C29.8666 28.9761 29.9302 28.7047 29.9302 28.429V22.3994H22.2558ZM19.186 19.081H33V28.429C32.9997 29.2563 32.8087 30.0704 32.4443 30.7979C32.0798 31.5253 31.5534 32.143 30.9126 32.5953L26.093 36L21.2735 32.5953C20.6327 32.143 20.1062 31.5253 19.7418 30.7979C19.3773 30.0704 19.1863 29.2563 19.186 28.429V19.081ZM9.2093 23.229C7.581 23.229 6.01938 23.9283 4.868 25.1729C3.71661 26.4176 3.06977 28.1057 3.06977 29.8659H16.193V33.1843H0V29.8659C0 27.2256 0.970263 24.6934 2.69734 22.8264C4.42442 20.9594 6.76684 19.9106 9.2093 19.9106H16.1163V23.229H9.2093Z" fill="#333333"/>
</svg>
