<svg width="30" height="36" viewBox="0 0 30 36" fill="none" xmlns="http://www.w3.org/2000/svg">
<path d="M3.21429 0C2.3618 0 1.54424 0.355579 0.941443 0.988515C0.338647 1.62145 0 2.47989 0 3.375V32.625C0 33.5201 0.338647 34.3785 0.941443 35.0115C1.54424 35.6444 2.3618 36 3.21429 36H18.2143C19.0668 36 19.8843 35.6444 20.4871 35.0115C21.0899 34.3785 21.4286 33.5201 21.4286 32.625V29.25C21.4286 28.9516 21.3157 28.6655 21.1148 28.4545C20.9138 28.2435 20.6413 28.125 20.3571 28.125C19.4721 28.125 18.9064 27.8955 18.5229 27.594C18.1329 27.288 17.83 26.8207 17.6143 26.1922C17.1557 24.8692 17.1429 23.1165 17.1429 21.375C17.1428 21.227 17.115 21.0805 17.0609 20.9438C17.0069 20.8071 16.9277 20.683 16.8279 20.5785L16.215 19.9328L13.6157 17.2035C12.615 16.1528 12.3214 15.4485 12.2657 15.0548C12.2229 14.7397 12.3129 14.5282 12.5271 14.3123C12.9857 13.851 13.3136 13.5382 13.6843 13.4437C13.905 13.3853 14.4086 13.3447 15.3129 14.2942L21.7414 21.0442C21.9423 21.2555 22.2149 21.3743 22.4992 21.3745C22.64 21.3746 22.7794 21.3456 22.9095 21.2891C23.0396 21.2327 23.1579 21.1498 23.2575 21.0454C23.3571 20.9409 23.4362 20.8169 23.4901 20.6804C23.5441 20.5438 23.5719 20.3975 23.572 20.2497C23.5721 20.1019 23.5445 19.9555 23.4907 19.8189C23.4369 19.6822 23.358 19.5581 23.2586 19.4535L21.4286 17.5343V10.5907L26.9143 16.3507C27.2131 16.6641 27.4502 17.0362 27.612 17.4459C27.7737 17.8555 27.8571 18.2946 27.8571 18.738V34.875C27.8571 35.1734 27.97 35.4595 28.171 35.6705C28.3719 35.8815 28.6444 36 28.9286 36C29.2127 36 29.4853 35.8815 29.6862 35.6705C29.8871 35.4595 30 35.1734 30 34.875V18.738C29.9997 17.2468 29.4355 15.8168 28.4314 14.7622L21.4286 7.40925V3.375C21.4286 2.47989 21.0899 1.62145 20.4871 0.988515C19.8843 0.355579 19.0668 0 18.2143 0H3.21429ZM19.2857 7.875V15.2843L16.83 12.7035C15.5914 11.403 14.3571 10.9552 13.1764 11.2567C12.9444 11.3166 12.7194 11.4033 12.5057 11.5155C11.5478 11.2237 10.5384 11.1699 9.55728 11.3583C8.57617 11.5468 7.65028 11.9724 6.85286 12.6015C6.05543 13.2306 5.40835 14.0458 4.9628 14.9828C4.51724 15.9198 4.28544 16.9527 4.28571 18C4.28563 19.3049 4.64575 20.5818 5.32249 21.6762C5.99924 22.7707 6.96359 23.6357 8.09883 24.1666C9.23406 24.6975 10.4915 24.8715 11.719 24.6675C12.9465 24.4636 14.0913 23.8905 15.015 23.0175C15.0514 24.318 15.1757 25.74 15.6 26.9618C15.9171 27.8775 16.4229 28.7527 17.2371 29.3918L17.25 29.4053C16.5975 29.6207 16.0274 30.0491 15.6228 30.6282C15.2181 31.2073 15 31.9068 15 32.625V33.75H6.42857V32.625C6.42857 31.7299 6.08992 30.8714 5.48713 30.2385C4.88433 29.6056 4.06677 29.25 3.21429 29.25H2.14286V6.75H3.21429C4.06677 6.75 4.88433 6.39442 5.48713 5.76149C6.08992 5.12855 6.42857 4.27011 6.42857 3.375V2.25H15V3.375C15 4.27011 15.3386 5.12855 15.9414 5.76149C16.5442 6.39442 17.3618 6.75 18.2143 6.75H19.2857V7.875ZM19.2857 32.625V32.6453C19.2807 32.9401 19.1655 33.2211 18.9652 33.4277C18.7648 33.6343 18.4951 33.75 18.2143 33.75H17.1429V32.625C17.1429 32.3266 17.2557 32.0405 17.4567 31.8295C17.6576 31.6185 17.9301 31.5 18.2143 31.5H19.2857V32.625ZM6.42857 18C6.42859 16.8556 6.84384 15.7542 7.58985 14.9199C8.33585 14.0856 9.35656 13.5811 10.4443 13.509C10.1786 14.0265 10.0436 14.6565 10.1464 15.3832C10.2986 16.4678 10.9564 17.595 12.0986 18.7942L14.0421 20.835C13.4842 21.557 12.727 22.0797 11.8745 22.3314C11.0221 22.5831 10.1164 22.5514 9.28185 22.2407C8.4473 21.9299 7.7249 21.3554 7.21398 20.596C6.70305 19.8366 6.42868 18.9298 6.42857 18ZM4.28571 2.25V3.375C4.28571 3.67337 4.17283 3.95952 3.9719 4.1705C3.77097 4.38147 3.49845 4.5 3.21429 4.5H2.14286V3.375C2.14286 3.07663 2.25574 2.79048 2.45667 2.5795C2.6576 2.36853 2.93012 2.25 3.21429 2.25H4.28571ZM2.14286 31.5H3.21429C3.49845 31.5 3.77097 31.6185 3.9719 31.8295C4.17283 32.0405 4.28571 32.3266 4.28571 32.625V33.75H3.21429C2.93012 33.75 2.6576 33.6315 2.45667 33.4205C2.25574 33.2095 2.14286 32.9234 2.14286 32.625V31.5ZM19.2857 4.5H18.2143C17.9301 4.5 17.6576 4.38147 17.4567 4.1705C17.2557 3.95952 17.1429 3.67337 17.1429 3.375V2.25H18.2143C18.4984 2.25 18.771 2.36853 18.9719 2.5795C19.1728 2.79048 19.2857 3.07663 19.2857 3.375V4.5Z" fill="#333333"/>
</svg>
