<svg width="32" height="35" viewBox="0 0 32 35" fill="none" xmlns="http://www.w3.org/2000/svg">
<path d="M22.077 31.1481C20.2097 32.1293 18.1669 32.6355 16.0989 32.6296C8.4058 32.6296 2.14655 25.7176 2.14655 17.2222C2.14655 13.5778 3.28099 10.136 5.36633 7.3757V10.1111H7.51285V3H1.07329V5.37037H4.1235C1.46252 8.6175 -0.00756613 12.8429 2.92857e-05 17.2222C2.92857e-05 27.0248 7.222 34.9999 16.0989 34.9999C18.4863 35.0066 20.8445 34.4218 23 33.2885L22.077 31.1481Z" fill="#333333"/>
<path d="M21.5556 10C18.0444 10 15.1656 12.73 14.9133 16.1778C13.6918 15.0633 12.098 14.4451 10.4444 14.4444H6V18.8889C6 22.5656 8.99111 25.5556 12.6667 25.5556H14.8889V30H17.1111V21.1111H19.3333C23.0089 21.1111 26 18.1211 26 14.4444V10H21.5556ZM12.6667 23.3333C10.2156 23.3333 8.22222 21.34 8.22222 18.8889V16.6667H10.4444C12.8956 16.6667 14.8889 18.66 14.8889 21.1111V21.7622L12.3411 19.2144L10.77 20.7856L13.3178 23.3333H12.6667ZM23.7778 14.4444C23.7778 16.8956 21.7844 18.8889 19.3333 18.8889H18.6822L21.23 16.3411L19.6589 14.77L17.1111 17.3178V16.6667C17.1111 14.2156 19.1044 12.2222 21.5556 12.2222H23.7778V14.4444Z" fill="#333333"/>
<path d="M32 17.7778C32 7.97515 24.778 5.68344e-05 15.9011 5.68344e-05C13.5137 -0.00663787 11.1555 0.578191 9 1.71146L9.923 3.8519C11.7903 2.87071 13.8331 2.36446 15.9011 2.37042C23.5942 2.37042 29.8535 9.28241 29.8535 17.7778C29.8535 21.4222 28.719 24.864 26.6337 27.6243V24.8889H24.4871V32H30.9267V29.6296H27.8765C30.5375 26.3825 32.0076 22.1571 32 17.7778Z" fill="#333333"/>
</svg>
